<?xml version="1.0" encoding="utf-8"?>
<svg version="1.1" id="Layer_1" xmlns="http://www.w3.org/2000/svg" xmlns:xlink="http://www.w3.org/1999/xlink" x="0px" y="0px"
	 width="100%" height="100%" viewBox="0 0 399 35" xml:space="preserve">
<g>
	<polygon fill="#FFFFFF" points="28.272,0.003 28.272,10.849 27.355,10.844 31.353,21.463 34.97,21.468 34.97,32.322 0,32.322 
		0,21.482 3.592,21.487 7.625,10.835 6.687,10.837 6.69,0 	"/>
	<path fill="#AB0520" d="M17.478,4.115l7.379,19.135c0,0,0.946,2.329,2.481,2.329h-5.373c0,0,0.27,0.039,0.539-0.409
		c0.153-0.256,0.023-0.64,0.023-0.64l-1.661-4.271h-3.389h-3.375l-1.664,4.271c0,0-0.126,0.384,0.027,0.64
		c0.268,0.448,0.537,0.409,0.537,0.409H7.631c1.535,0,2.481-2.329,2.481-2.329L17.478,4.115"/>
	<polyline fill="#002147" points="17.485,4.091 24.139,4.091 24.139,6.752 21.375,6.752 28.643,25.484 30.792,25.484 30.792,28.24 
		21.784,28.24 21.784,25.559 19.255,25.559 19.255,30.816 33.473,30.816 33.473,22.978 30.281,22.983 25.163,9.339 26.77,9.339 
		26.77,1.504 17.485,1.504 17.485,1.504 8.2,1.504 8.2,9.339 9.808,9.339 4.689,22.966 1.497,22.978 1.497,30.816 15.715,30.816 
		15.715,25.559 13.186,25.559 13.186,28.24 4.178,28.24 4.178,25.484 6.328,25.484 13.595,6.752 10.832,6.752 10.832,4.091 
		17.485,4.091 	"/>
	<polygon fill="#FFFFFF" points="17.473,18.23 20.072,18.23 17.524,11.518 14.885,18.23 17.473,18.23 	"/>
</g>
<g>
	<path fill="#FFFFFF" d="M47.358,22.291c0,0.917,0.083,1.599,0.248,2.041c0.163,0.44,0.435,0.837,0.816,1.188h-4.92
		c0.388-0.35,0.664-0.747,0.823-1.188c0.16-0.442,0.24-1.124,0.24-2.041V9.289h-1.451c-0.994,0-1.802,0.078-2.42,0.234
		s-1.113,0.41-1.481,0.756L40.1,7.291h12.808l-0.838,2.937c-0.265-0.32-0.617-0.559-1.05-0.711
		c-0.436-0.153-0.983-0.228-1.644-0.228h-2.018V22.291z"/>
	<path fill="#FFFFFF" d="M57.01,22.72c0,0.802,0.07,1.397,0.208,1.785c0.141,0.387,0.378,0.732,0.716,1.038H53.63
		c0.329-0.305,0.565-0.65,0.708-1.038c0.141-0.387,0.213-0.983,0.213-1.785V12.4c0-0.804-0.072-1.397-0.213-1.78
		c-0.143-0.383-0.379-0.725-0.708-1.023h4.303c-0.337,0.298-0.575,0.64-0.716,1.023c-0.137,0.382-0.208,0.976-0.208,1.78v3.571
		h8.447V12.4c0-0.804-0.069-1.397-0.209-1.78c-0.138-0.383-0.377-0.725-0.713-1.023h4.303c-0.329,0.298-0.566,0.64-0.707,1.023
		c-0.143,0.382-0.215,0.976-0.215,1.78v10.32c0,0.802,0.07,1.397,0.208,1.785c0.14,0.387,0.377,0.732,0.714,1.038h-4.303
		c0.336-0.305,0.576-0.65,0.713-1.038c0.14-0.387,0.209-0.983,0.209-1.785v-4.912H57.01V22.72z"/>
	<path fill="#FFFFFF" d="M70.927,25.542c0.331-0.305,0.566-0.652,0.708-1.039c0.142-0.386,0.215-0.983,0.215-1.786V12.411
		c0-0.805-0.073-1.402-0.215-1.787c-0.142-0.384-0.377-0.726-0.708-1.026h8.591v2.518c-0.383-0.311-0.806-0.535-1.265-0.674
		c-0.458-0.137-0.989-0.208-1.588-0.208c-0.309,0-0.656,0.023-1.04,0.075c-0.385,0.05-0.817,0.126-1.298,0.226v4.492h3.852v2.316
		c-0.181-0.215-0.426-0.368-0.735-0.456c-0.311-0.088-0.877-0.134-1.7-0.134h-1.417v5.716c0.594,0.09,1.134,0.159,1.615,0.204
		c0.482,0.046,0.899,0.071,1.252,0.071c0.8,0,1.552-0.109,2.259-0.326c0.708-0.217,1.404-0.549,2.089-0.997l-1.097,3.121H70.927z"/>
	<path fill="#FFFFFF" d="M101.898,25.578v-1.371c-0.873,0.635-1.752,1.107-2.635,1.42c-0.891,0.31-1.791,0.467-2.698,0.467
		c-1.039,0-1.967-0.174-2.781-0.521c-0.815-0.348-1.518-0.868-2.108-1.566c-0.464-0.547-0.796-1.185-0.998-1.913
		c-0.201-0.726-0.303-1.705-0.303-2.932v-8.533c0-0.914-0.08-1.589-0.236-2.024c-0.161-0.436-0.425-0.824-0.802-1.164h4.877
		c-0.375,0.34-0.643,0.728-0.801,1.164c-0.156,0.435-0.236,1.11-0.236,2.024v7.971c0,1.246,0.06,2.17,0.179,2.771
		c0.12,0.599,0.322,1.08,0.606,1.438c0.341,0.425,0.797,0.747,1.368,0.961c0.567,0.212,1.245,0.319,2.037,0.319
		c0.646,0,1.27-0.098,1.833-0.294c0.566-0.196,1.063-0.481,1.491-0.855c0.376-0.314,0.645-0.723,0.811-1.221
		c0.162-0.502,0.243-1.184,0.243-2.046v-9.042c0-0.949-0.077-1.634-0.232-2.057c-0.157-0.422-0.426-0.798-0.804-1.13h4.913
		c-0.38,0.332-0.649,0.728-0.814,1.19c-0.163,0.461-0.243,1.128-0.243,1.998v11.749c0,0.911,0.081,1.586,0.243,2.025
		c0.166,0.44,0.434,0.829,0.814,1.176H101.898z"/>
	<path fill="#FFFFFF" d="M123.019,9.598c-0.338,0.298-0.575,0.64-0.715,1.022c-0.139,0.381-0.208,0.976-0.208,1.779v13.512
		c-0.549-0.017-1.069-0.197-1.562-0.539c-0.493-0.345-1.109-1.002-1.852-1.965l-8.108-10.377v9.687c0,0.837,0.066,1.44,0.203,1.814
		c0.135,0.377,0.369,0.713,0.702,1.011h-3.564c0.331-0.305,0.567-0.65,0.708-1.039c0.143-0.386,0.215-0.981,0.215-1.786V12.399
		c0-0.803-0.072-1.398-0.215-1.779c-0.142-0.382-0.377-0.725-0.708-1.022h3.188l9.292,11.973v-9.171c0-0.803-0.07-1.398-0.213-1.779
		c-0.144-0.382-0.377-0.725-0.708-1.022H123.019z"/>
	<path fill="#FFFFFF" d="M128.972,22.717c0,0.805,0.068,1.4,0.208,1.786c0.139,0.389,0.375,0.734,0.714,1.039h-4.306
		c0.338-0.305,0.576-0.65,0.714-1.039c0.138-0.386,0.208-0.981,0.208-1.786V12.399c0-0.803-0.071-1.398-0.208-1.779
		c-0.139-0.382-0.376-0.725-0.714-1.022h4.306c-0.339,0.298-0.575,0.64-0.714,1.022c-0.14,0.381-0.208,0.976-0.208,1.779V22.717z"/>
	<path fill="#FFFFFF" d="M139.01,25.947c-0.67-0.176-1.244-0.56-1.718-1.153c-0.474-0.595-0.91-1.48-1.312-2.66l-3.18-9.287
		c-0.257-0.767-0.499-1.39-0.729-1.871c-0.229-0.483-0.488-0.943-0.773-1.379l3.246,0.01c0.016,0.262,0.041,0.503,0.08,0.725
		c0.037,0.221,0.085,0.432,0.146,0.631l3.823,11.411l3.617-9.505c0.104-0.291,0.189-0.583,0.254-0.879
		c0.064-0.293,0.098-0.562,0.098-0.809c0-0.213-0.063-0.441-0.183-0.682c-0.121-0.243-0.322-0.542-0.607-0.902h3.597L139.01,25.947z
		"/>
	<path fill="#FFFFFF" d="M146.467,25.542c0.33-0.305,0.566-0.652,0.709-1.039c0.143-0.386,0.213-0.983,0.213-1.786V12.411
		c0-0.805-0.07-1.402-0.213-1.787c-0.143-0.384-0.379-0.726-0.709-1.026h8.578v2.518c-0.382-0.311-0.8-0.535-1.257-0.674
		c-0.456-0.137-0.982-0.208-1.586-0.208c-0.308,0-0.654,0.023-1.037,0.075c-0.384,0.05-0.816,0.126-1.298,0.226v4.492h3.848v2.316
		c-0.18-0.215-0.424-0.368-0.732-0.456c-0.308-0.088-0.876-0.134-1.699-0.134h-1.417v5.716c0.595,0.09,1.133,0.159,1.614,0.204
		c0.484,0.046,0.899,0.071,1.254,0.071c0.793,0,1.542-0.109,2.244-0.326c0.704-0.217,1.398-0.549,2.085-0.997l-1.099,3.121H146.467z
		"/>
	<path fill="#FFFFFF" d="M161.538,22.72c0,0.802,0.07,1.397,0.209,1.785c0.137,0.387,0.375,0.732,0.714,1.038h-4.306
		c0.33-0.305,0.565-0.65,0.709-1.038s0.214-0.983,0.214-1.785V12.405c0-0.805-0.07-1.399-0.214-1.784
		c-0.144-0.382-0.379-0.725-0.709-1.023h5.435c1.549,0,2.8,0.376,3.752,1.125c0.953,0.751,1.43,1.727,1.43,2.929
		c0,0.872-0.287,1.643-0.858,2.308c-0.573,0.667-1.463,1.251-2.667,1.757l4.078,5.52c0.241,0.329,0.531,0.676,0.869,1.044
		c0.339,0.368,0.727,0.749,1.167,1.146l-1.224,0.115h-0.192c-0.571,0-1.128-0.153-1.671-0.459c-0.542-0.305-1.001-0.728-1.379-1.262
		l-4.671-6.545c1.392-0.315,2.407-0.746,3.052-1.292c0.642-0.548,0.964-1.253,0.964-2.12c0-0.805-0.275-1.459-0.829-1.965
		c-0.55-0.506-1.274-0.758-2.171-0.758c-0.203,0-0.447,0.018-0.733,0.051c-0.283,0.035-0.608,0.087-0.969,0.155V22.72z"/>
	<path fill="#FFFFFF" d="M172.126,25.184l-0.751-2.894c0.917,0.619,1.807,1.083,2.669,1.383c0.858,0.304,1.711,0.455,2.553,0.455
		c1.075,0,1.939-0.236,2.597-0.705c0.652-0.472,0.981-1.083,0.981-1.832c0-0.215-0.034-0.429-0.102-0.645
		c-0.068-0.213-0.162-0.416-0.293-0.608c-0.285-0.437-1.246-1.061-2.878-1.874c-0.413-0.197-0.733-0.354-0.959-0.469
		c-1.527-0.782-2.58-1.501-3.151-2.16c-0.572-0.657-0.857-1.439-0.857-2.343c0-1.295,0.524-2.322,1.569-3.083
		c1.042-0.763,2.466-1.143,4.277-1.143c0.519,0,1.091,0.034,1.717,0.104c0.625,0.068,1.303,0.175,2.036,0.321v2.68
		c-0.648-0.5-1.301-0.873-1.954-1.12c-0.657-0.245-1.34-0.368-2.046-0.368c-0.897,0-1.619,0.195-2.163,0.586
		c-0.547,0.39-0.82,0.9-0.82,1.528c0,0.559,0.215,1.055,0.643,1.482c0.426,0.43,1.391,1.004,2.886,1.725
		c0.083,0.038,0.211,0.1,0.385,0.184c1.264,0.587,2.209,1.132,2.835,1.628c0.467,0.369,0.83,0.817,1.089,1.345
		c0.262,0.526,0.389,1.089,0.389,1.688c0,1.369-0.615,2.53-1.851,3.483c-1.235,0.953-2.776,1.43-4.63,1.43
		c-0.598,0-1.235-0.065-1.922-0.196C173.688,25.641,172.938,25.446,172.126,25.184z"/>
	<path fill="#FFFFFF" d="M188.293,22.717c0,0.805,0.069,1.4,0.209,1.786c0.14,0.389,0.375,0.734,0.714,1.039h-4.304
		c0.337-0.305,0.577-0.65,0.716-1.039c0.137-0.386,0.208-0.981,0.208-1.786V12.399c0-0.803-0.07-1.398-0.208-1.779
		c-0.14-0.382-0.379-0.725-0.716-1.022h4.304c-0.338,0.298-0.574,0.64-0.714,1.022c-0.14,0.381-0.209,0.976-0.209,1.779V22.717z"/>
	<path fill="#FFFFFF" d="M261.985,4.352l1.445,3.53l5.498,13.777c0.609,1.532,1.086,3.032,2.592,3.807v0.082h-5.423v-0.082
		c1.3-0.588,1.083-0.881,0.376-2.756l-1.432-3.785h-6.7l-1.376,3.785c-0.555,1.501-0.739,2.274,0.528,2.756v0.082h-4.866v-0.082
		c1.532-0.775,1.985-2.275,2.566-3.807l6.791-17.199V4.352z M261.675,10.167l-2.646,6.773h5.244L261.675,10.167z"/>
	<path fill="#FFFFFF" d="M228.453,25.934c-1.197,0-2.325-0.193-3.386-0.581c-1.057-0.389-1.965-0.943-2.729-1.67
		c-0.799-0.763-1.418-1.666-1.848-2.704c-0.436-1.037-0.65-2.126-0.65-3.267c0-0.896,0.139-1.765,0.412-2.607
		c0.276-0.841,0.678-1.626,1.203-2.355c0.821-1.125,1.837-1.989,3.046-2.594c1.21-0.605,2.527-0.908,3.951-0.908
		c1.221,0,2.362,0.194,3.421,0.581c1.061,0.386,1.967,0.942,2.729,1.671c0.815,0.765,1.434,1.669,1.867,2.714
		c0.429,1.046,0.644,2.173,0.644,3.381c0,1.112-0.242,2.198-0.724,3.263c-0.482,1.065-1.162,2.007-2.035,2.824
		c-0.781,0.742-1.676,1.299-2.68,1.681C230.673,25.742,229.601,25.934,228.453,25.934z M228.542,10.939
		c-1.748,0-3.189,0.608-4.324,1.823c-1.133,1.218-1.701,2.772-1.701,4.662c0,1.953,0.562,3.572,1.685,4.86
		c1.124,1.292,2.524,1.935,4.205,1.935c1.742,0,3.178-0.609,4.313-1.83c1.13-1.22,1.697-2.78,1.697-4.677
		c0-1.953-0.559-3.568-1.682-4.85C231.612,11.579,230.216,10.939,228.542,10.939z"/>
	<path fill="#FFFFFF" d="M241.806,22.735c0,0.806,0.067,1.399,0.206,1.784c0.141,0.382,0.38,0.728,0.72,1.03h-4.307
		c0.332-0.302,0.568-0.648,0.709-1.03c0.142-0.385,0.215-0.978,0.215-1.784V12.428c0-0.805-0.073-1.402-0.215-1.787
		c-0.141-0.383-0.377-0.726-0.709-1.025h8.605v2.516c-0.388-0.311-0.806-0.533-1.266-0.674c-0.458-0.138-0.99-0.208-1.594-0.208
		c-0.316,0-0.661,0.025-1.047,0.075c-0.383,0.051-0.815,0.127-1.298,0.228v4.491h3.866v2.316c-0.184-0.215-0.43-0.368-0.74-0.455
		c-0.31-0.089-0.881-0.133-1.71-0.133h-1.437V22.735z"/>
	<path fill="#FFFFFF" d="M275.249,22.739c0,0.802,0.068,1.396,0.209,1.779c0.139,0.382,0.379,0.728,0.715,1.03h-4.307
		c0.331-0.302,0.566-0.648,0.708-1.03c0.146-0.383,0.215-0.978,0.215-1.779V12.422c0-0.805-0.069-1.4-0.215-1.783
		c-0.142-0.384-0.377-0.727-0.708-1.023h5.436c1.551,0,2.802,0.374,3.755,1.125c0.951,0.749,1.428,1.726,1.428,2.929
		c0,0.872-0.286,1.642-0.858,2.308s-1.463,1.252-2.668,1.756l4.079,5.521c0.241,0.33,0.529,0.678,0.871,1.042
		c0.339,0.366,0.722,0.744,1.163,1.141l-1.219,0.111h-0.191c-0.574,0-1.131-0.149-1.672-0.454c-0.545-0.305-1.006-0.722-1.379-1.255
		l-4.677-6.546c1.394-0.314,2.407-0.745,3.055-1.292c0.642-0.549,0.964-1.254,0.964-2.119c0-0.806-0.275-1.46-0.831-1.966
		c-0.548-0.505-1.271-0.758-2.171-0.758c-0.203,0-0.447,0.018-0.73,0.052c-0.288,0.034-0.609,0.086-0.971,0.156V22.739z"/>
	<path fill="#FFFFFF" d="M289.796,22.736c0,0.805,0.068,1.399,0.203,1.782c0.141,0.382,0.381,0.728,0.719,1.03h-4.303
		c0.332-0.302,0.572-0.648,0.711-1.03c0.14-0.383,0.21-0.978,0.21-1.782v-10.32c0-0.804-0.07-1.397-0.21-1.78
		c-0.139-0.382-0.379-0.724-0.711-1.021h4.303c-0.338,0.297-0.578,0.639-0.719,1.021c-0.135,0.383-0.203,0.976-0.203,1.78V22.736z"
		/>
	<path fill="#FFFFFF" d="M305.724,22.567l-1.141,2.981h-12.246l8.355-13.882c-0.623-0.16-1.211-0.279-1.767-0.356
		c-0.554-0.076-1.069-0.115-1.542-0.115c-0.694,0-1.363,0.086-2.01,0.26c-0.639,0.173-1.298,0.448-1.968,0.824l1.082-2.663h10.185
		l-8.355,13.877c0.929,0.11,1.709,0.188,2.344,0.233c0.63,0.048,1.18,0.07,1.639,0.07c1.082,0,2.076-0.102,2.972-0.308
		C304.169,23.285,304.983,22.977,305.724,22.567z"/>
	<path fill="#FFFFFF" d="M314.769,25.934c-1.202,0-2.329-0.193-3.388-0.581c-1.062-0.389-1.97-0.943-2.728-1.67
		c-0.801-0.763-1.418-1.666-1.852-2.704c-0.434-1.037-0.648-2.126-0.648-3.267c0-0.896,0.135-1.765,0.414-2.607
		c0.271-0.841,0.676-1.626,1.2-2.355c0.821-1.125,1.839-1.989,3.048-2.594c1.207-0.605,2.529-0.908,3.953-0.908
		c1.22,0,2.357,0.194,3.418,0.581c1.059,0.386,1.966,0.942,2.73,1.671c0.812,0.765,1.433,1.669,1.865,2.714
		c0.427,1.046,0.642,2.173,0.642,3.381c0,1.112-0.241,2.198-0.724,3.263s-1.159,2.007-2.033,2.824
		c-0.783,0.742-1.676,1.299-2.681,1.681C316.985,25.742,315.911,25.934,314.769,25.934z M314.854,10.939
		c-1.754,0-3.191,0.608-4.326,1.823c-1.133,1.218-1.701,2.772-1.701,4.662c0,1.953,0.562,3.572,1.688,4.86
		c1.122,1.292,2.521,1.935,4.202,1.935c1.739,0,3.178-0.609,4.313-1.83c1.133-1.22,1.701-2.78,1.701-4.677
		c0-1.953-0.562-3.568-1.684-4.85C317.925,11.579,316.524,10.939,314.854,10.939z"/>
	<path fill="#FFFFFF" d="M339.804,9.616c-0.341,0.297-0.579,0.639-0.715,1.021c-0.141,0.383-0.209,0.976-0.209,1.78v13.5
		c-0.55-0.017-1.07-0.193-1.562-0.536s-1.108-0.994-1.852-1.955l-8.108-10.377v9.688c0,0.833,0.069,1.44,0.204,1.811
		c0.135,0.372,0.367,0.708,0.7,1.001h-3.561c0.329-0.302,0.563-0.648,0.708-1.03c0.142-0.383,0.217-0.978,0.217-1.782v-10.32
		c0-0.804-0.075-1.397-0.217-1.78c-0.145-0.382-0.379-0.724-0.708-1.021h3.187l9.292,11.972v-9.172c0-0.804-0.074-1.397-0.216-1.78
		c-0.141-0.382-0.379-0.724-0.707-1.021H339.804z"/>
	<path fill="#FFFFFF" d="M343.472,23.403c-0.068,0.16-0.121,0.327-0.154,0.499c-0.033,0.17-0.048,0.348-0.048,0.53
		c0,0.153,0.054,0.319,0.162,0.5c0.109,0.184,0.283,0.389,0.523,0.616h-3.706c0.308-0.211,0.585-0.504,0.832-0.877
		c0.244-0.371,0.494-0.882,0.748-1.534l4.422-11.375c0.091-0.215,0.159-0.425,0.205-0.631c0.043-0.208,0.066-0.391,0.066-0.552
		c0-0.184-0.045-0.352-0.127-0.505c-0.089-0.154-0.229-0.306-0.427-0.458h3.571l5.002,13.36c0.23,0.606,0.485,1.096,0.75,1.474
		c0.271,0.375,0.612,0.743,1.037,1.099h-4.502l0.055-0.055c0.414-0.44,0.621-0.765,0.621-0.97c0-0.243-0.088-0.601-0.271-1.074
		c-0.022-0.078-0.044-0.135-0.056-0.173l-1.348-3.686h-5.855L343.472,23.403z M345.599,17.99h4.631l-2.226-6.161L345.599,17.99z"/>
	<path fill="#FFFFFF" d="M203.536,9.599l4.087,6.95l2.752-4.526c0.167-0.276,0.294-0.525,0.379-0.752
		c0.084-0.226,0.131-0.419,0.131-0.582c0-0.183-0.054-0.364-0.163-0.543c-0.11-0.181-0.274-0.364-0.506-0.546h3.677l-5.399,8.776
		v4.354c0,0.805,0.072,1.4,0.212,1.788c0.148,0.389,0.385,0.733,0.715,1.038h-4.332c0.338-0.305,0.579-0.649,0.716-1.038
		c0.138-0.388,0.209-0.983,0.209-1.788l0.006-4.398l-3.693-6.082c-0.372-0.545-0.647-0.629-1.004-0.756
		c-0.382-0.133-1.023-0.147-1.607-0.147h-1.76v11.383c0,0.805,0.067,1.4,0.213,1.788c0.143,0.389,0.38,0.733,0.71,1.038h-4.308
		c0.333-0.305,0.575-0.649,0.715-1.038c0.136-0.388,0.207-0.983,0.207-1.788V11.345h-1.262c-0.875,0-1.583,0.068-2.125,0.207
		c-0.541,0.139-0.977,0.36-1.302,0.666l0.779-2.619H203.536z"/>
	<g>
		<path fill="#CCCCCC" d="M364.005,21.295c0.63,0.613,0.939,1.367,0.939,2.257c0,0.891-0.31,1.642-0.937,2.258
			c-0.63,0.612-1.396,0.918-2.306,0.918c-0.911,0-1.678-0.306-2.305-0.918c-0.629-0.616-0.941-1.367-0.941-2.258
			c0-0.89,0.312-1.644,0.941-2.257c0.631-0.616,1.398-0.925,2.305-0.925C362.61,20.37,363.374,20.679,364.005,21.295z
			 M363.548,21.679c-0.504-0.513-1.119-0.768-1.846-0.768c-0.729,0-1.342,0.255-1.846,0.768c-0.502,0.506-0.751,1.135-0.751,1.873
			c0,0.741,0.249,1.364,0.751,1.876c0.504,0.507,1.117,0.763,1.846,0.763c0.723,0,1.34-0.256,1.84-0.763
			c0.508-0.512,0.758-1.135,0.758-1.876C364.3,22.814,364.051,22.185,363.548,21.679z M360.294,21.712h0.29h1.181
			c0.398,0,0.71,0.088,0.932,0.263c0.233,0.177,0.344,0.42,0.344,0.732c0,0.342-0.11,0.613-0.344,0.802
			c-0.164,0.14-0.38,0.235-0.649,0.269l1.06,1.61h-0.336h-0.332l-0.956-1.589l-0.614,0.009v1.58h-0.284h-0.29V21.712z
			 M360.868,23.313h0.785c0.271,0,0.471-0.049,0.596-0.146c0.124-0.097,0.189-0.246,0.189-0.453c0-0.184-0.065-0.318-0.189-0.403
			c-0.125-0.082-0.324-0.13-0.596-0.13h-0.785V23.313z"/>
	</g>
</g>
</svg>
